<svg id="svg" version="1.1" width="400" height="400" xmlns="http://www.w3.org/2000/svg" xmlns:xlink="http://www.w3.org/1999/xlink" style="display: block;"><g id="svgg"><path id="path0" d="M121.863 80.700 C 121.762 80.865,121.779 134.686,121.901 200.303 L 122.123 319.606 144.962 319.503 L 167.800 319.400 167.902 267.900 L 168.003 216.400 200.000 216.400 L 231.997 216.400 232.098 267.900 L 232.200 319.400 255.051 319.503 L 277.901 319.607 278.176 239.903 C 278.328 196.066,278.395 142.290,278.326 120.400 L 278.200 80.600 255.100 80.497 L 232.000 80.394 232.000 127.997 L 232.000 175.600 200.000 175.600 L 168.000 175.600 168.000 128.000 L 168.000 80.400 145.024 80.400 C 132.387 80.400,121.964 80.535,121.863 80.700 " stroke="none" fill="#ffffff" fill-rule="evenodd"></path><path id="path1" d="" stroke="none" fill="#555500" fill-rule="evenodd"></path><path id="path2" d="" stroke="none" fill="#993300" fill-rule="evenodd"></path><path id="path3" d="" stroke="none" fill="#ff0000" fill-rule="evenodd"></path><path id="path4" d="M36.100 0.293 C 34.945 0.375,34.000 0.612,34.000 0.821 C 34.000 1.029,33.460 1.200,32.800 1.200 C 32.140 1.200,31.600 1.380,31.600 1.600 C 31.600 1.820,31.245 2.000,30.812 2.000 C 30.379 2.000,29.383 2.360,28.600 2.800 C 27.817 3.240,26.821 3.600,26.388 3.600 C 25.955 3.600,25.600 3.780,25.600 4.000 C 25.600 4.220,25.280 4.400,24.888 4.400 C 24.497 4.400,23.917 4.760,23.600 5.200 C 23.283 5.640,22.703 6.000,22.312 6.000 C 21.920 6.000,21.600 6.180,21.600 6.400 C 21.600 6.620,21.312 6.800,20.960 6.800 C 20.609 6.800,19.817 7.340,19.200 8.000 C 18.583 8.660,17.848 9.200,17.565 9.200 C 16.880 9.200,9.211 16.850,9.205 17.540 C 9.202 17.836,8.660 18.583,8.000 19.200 C 7.340 19.817,6.800 20.609,6.800 20.960 C 6.800 21.312,6.620 21.600,6.400 21.600 C 6.180 21.600,6.000 21.920,6.000 22.312 C 6.000 22.703,5.640 23.283,5.200 23.600 C 4.760 23.917,4.400 24.497,4.400 24.888 C 4.400 25.280,4.220 25.600,4.000 25.600 C 3.780 25.600,3.600 26.039,3.600 26.576 C 3.600 27.113,3.420 27.664,3.200 27.800 C 2.980 27.936,2.800 28.397,2.800 28.824 C 2.800 29.251,2.620 29.600,2.400 29.600 C 2.180 29.600,2.000 30.050,2.000 30.600 C 2.000 31.150,1.820 31.600,1.600 31.600 C 1.380 31.600,1.200 32.125,1.200 32.767 C 1.200 33.408,0.975 34.008,0.700 34.100 C -0.036 34.345,-0.036 365.655,0.700 365.900 C 0.975 365.992,1.200 366.491,1.200 367.010 C 1.200 367.528,1.380 368.064,1.600 368.200 C 1.820 368.336,2.000 368.791,2.000 369.211 C 2.000 369.632,2.360 370.617,2.800 371.400 C 3.240 372.183,3.600 373.096,3.600 373.429 C 3.600 373.761,3.960 374.420,4.400 374.892 C 4.840 375.364,5.200 375.987,5.200 376.275 C 5.200 376.564,5.380 376.800,5.600 376.800 C 5.820 376.800,6.000 377.160,6.000 377.600 C 6.000 378.040,6.168 378.400,6.373 378.400 C 6.578 378.400,6.862 378.766,7.004 379.213 C 7.146 379.660,7.698 380.462,8.231 380.995 C 8.764 381.528,9.200 382.060,9.200 382.177 C 9.200 382.941,15.543 389.490,17.450 390.695 C 18.412 391.303,19.199 391.935,19.199 392.100 C 19.200 392.265,19.470 392.400,19.800 392.400 C 20.130 392.400,20.400 392.580,20.400 392.800 C 20.400 393.020,20.670 393.200,21.000 393.200 C 21.330 393.200,21.600 393.380,21.600 393.600 C 21.600 393.820,21.960 394.000,22.400 394.000 C 22.840 394.000,23.200 394.159,23.200 394.354 C 23.200 394.549,23.875 395.019,24.700 395.398 C 25.525 395.777,26.723 396.338,27.361 396.644 C 28.000 396.950,28.765 397.200,29.061 397.200 C 29.358 397.200,29.600 397.380,29.600 397.600 C 29.600 397.820,30.050 398.000,30.600 398.000 C 31.150 398.000,31.600 398.180,31.600 398.400 C 31.600 398.620,32.125 398.800,32.767 398.800 C 33.408 398.800,34.008 399.025,34.100 399.300 C 34.345 400.036,364.924 400.036,365.660 399.300 C 365.935 399.025,366.563 398.800,367.056 398.800 C 367.549 398.800,368.064 398.620,368.200 398.400 C 368.336 398.180,368.780 398.000,369.186 398.000 C 369.592 398.000,370.616 397.660,371.462 397.244 C 376.058 394.985,376.800 394.575,376.800 394.301 C 376.800 394.135,377.160 394.000,377.600 394.000 C 378.040 394.000,378.400 393.850,378.400 393.668 C 378.400 393.485,378.895 393.080,379.500 392.768 C 380.105 392.455,381.038 391.805,381.573 391.321 C 382.108 390.838,382.655 390.510,382.788 390.592 C 383.088 390.778,390.755 383.128,390.733 382.664 C 390.725 382.480,391.051 381.937,391.459 381.459 C 391.867 380.980,392.455 380.096,392.768 379.494 C 393.080 378.892,393.485 378.400,393.668 378.400 C 393.850 378.400,394.000 378.040,394.000 377.600 C 394.000 377.160,394.135 376.800,394.301 376.800 C 394.575 376.800,394.985 376.058,397.244 371.462 C 397.660 370.616,398.000 369.592,398.000 369.186 C 398.000 368.780,398.180 368.336,398.400 368.200 C 398.620 368.064,398.800 367.549,398.800 367.056 C 398.800 366.563,399.025 365.935,399.300 365.660 C 399.698 365.262,399.800 331.537,399.800 199.713 C 399.800 67.712,399.699 34.233,399.300 34.100 C 399.025 34.008,398.800 33.408,398.800 32.767 C 398.800 32.125,398.620 31.600,398.400 31.600 C 398.180 31.600,398.000 31.161,398.000 30.624 C 398.000 30.087,397.820 29.536,397.600 29.400 C 397.380 29.264,397.200 28.803,397.200 28.376 C 397.200 27.949,397.020 27.600,396.800 27.600 C 396.580 27.600,396.400 27.347,396.400 27.038 C 396.400 26.281,394.735 23.200,394.326 23.200 C 394.147 23.200,394.000 22.840,394.000 22.400 C 394.000 21.960,393.820 21.600,393.600 21.600 C 393.380 21.600,393.200 21.306,393.200 20.947 C 393.200 20.588,392.867 20.003,392.459 19.647 C 392.052 19.291,391.433 18.446,391.085 17.769 C 390.165 15.983,383.278 9.200,382.384 9.200 C 382.129 9.200,381.417 8.660,380.800 8.000 C 380.183 7.340,379.391 6.800,379.040 6.800 C 378.688 6.800,378.400 6.620,378.400 6.400 C 378.400 6.180,378.040 6.000,377.600 6.000 C 377.160 6.000,376.800 5.853,376.800 5.674 C 376.800 5.265,373.719 3.600,372.962 3.600 C 372.653 3.600,372.400 3.420,372.400 3.200 C 372.400 2.980,372.051 2.800,371.624 2.800 C 371.197 2.800,370.736 2.620,370.600 2.400 C 370.464 2.180,369.924 2.000,369.400 2.000 C 368.876 2.000,368.336 1.820,368.200 1.600 C 368.064 1.380,367.528 1.200,367.010 1.200 C 366.491 1.200,365.992 0.975,365.900 0.700 C 365.744 0.232,42.566 -0.167,36.100 0.293 M168.000 128.000 L 168.000 175.600 200.000 175.600 L 232.000 175.600 232.000 127.997 L 232.000 80.394 255.100 80.497 L 278.200 80.600 278.326 120.400 C 278.395 142.290,278.328 196.066,278.176 239.903 L 277.901 319.607 255.051 319.503 L 232.200 319.400 232.098 267.900 L 231.997 216.400 200.000 216.400 L 168.003 216.400 167.902 267.900 L 167.800 319.400 144.962 319.503 L 122.123 319.606 121.901 200.303 C 121.779 134.686,121.762 80.865,121.863 80.700 C 121.964 80.535,132.387 80.400,145.024 80.400 L 168.000 80.400 168.000 128.000 " stroke="none" fill="#f66722" fill-rule="evenodd"></path></g></svg>