<svg id="svg" version="1.1" width="400" height="400" xmlns="http://www.w3.org/2000/svg" xmlns:xlink="http://www.w3.org/1999/xlink" style="display: block;"><g id="svgg"><path id="path0" d="M210.600 94.833 C 208.400 95.002,205.970 95.339,205.200 95.582 C 204.430 95.825,201.280 96.206,198.200 96.428 C 194.277 96.712,192.121 97.056,191.000 97.577 C 190.120 97.986,188.074 98.442,186.452 98.589 C 184.393 98.777,183.260 99.086,182.694 99.613 C 182.248 100.029,181.054 100.472,180.041 100.599 C 179.029 100.725,177.363 101.272,176.341 101.814 C 175.319 102.356,173.840 102.800,173.055 102.800 C 172.048 102.800,171.505 103.030,171.209 103.583 C 170.962 104.045,170.178 104.472,169.295 104.626 C 168.473 104.769,167.170 105.299,166.400 105.803 C 165.630 106.307,164.577 106.846,164.061 106.999 C 163.544 107.153,162.789 107.611,162.383 108.017 C 161.977 108.423,161.011 108.874,160.236 109.020 C 159.381 109.180,158.736 109.571,158.596 110.014 C 158.468 110.416,157.855 110.856,157.232 110.993 C 156.610 111.130,155.686 111.682,155.181 112.221 C 154.675 112.759,154.053 113.200,153.800 113.200 C 153.547 113.200,152.917 113.650,152.400 114.200 C 151.883 114.750,151.267 115.203,151.030 115.206 C 150.794 115.210,149.991 115.750,149.246 116.406 C 148.501 117.063,147.667 117.600,147.392 117.600 C 147.118 117.600,146.800 117.958,146.685 118.395 C 146.571 118.833,146.010 119.368,145.439 119.585 C 144.867 119.802,144.400 120.169,144.400 120.399 C 144.400 120.629,143.970 121.013,143.444 121.253 C 142.918 121.492,142.292 122.118,142.053 122.644 C 141.813 123.170,141.372 123.600,141.073 123.600 C 140.773 123.600,140.323 124.050,140.073 124.600 C 139.822 125.150,139.372 125.600,139.073 125.600 C 138.773 125.600,138.323 126.050,138.073 126.600 C 137.822 127.150,137.438 127.600,137.219 127.600 C 137.000 127.600,136.541 128.140,136.200 128.800 C 135.859 129.460,135.359 130.001,135.090 130.003 C 134.632 130.005,134.299 130.445,132.173 133.864 C 131.718 134.596,131.055 135.511,130.701 135.897 C 130.346 136.284,129.617 137.080,129.080 137.666 C 128.543 138.253,127.983 139.213,127.836 139.800 C 127.688 140.388,127.125 141.278,126.584 141.780 C 126.043 142.281,125.600 142.951,125.600 143.268 C 125.600 143.585,125.150 144.455,124.600 145.200 C 124.050 145.945,123.600 146.856,123.600 147.224 C 123.600 147.591,123.225 148.369,122.766 148.952 C 122.307 149.535,121.756 150.651,121.540 151.432 C 121.324 152.213,120.828 153.172,120.437 153.563 C 120.046 153.954,119.608 155.157,119.464 156.237 C 119.305 157.433,118.904 158.448,118.438 158.834 C 117.937 159.250,117.576 160.250,117.390 161.740 C 117.233 162.994,116.762 164.448,116.338 164.988 C 115.827 165.638,115.444 167.062,115.196 169.236 C 114.989 171.048,114.520 172.967,114.144 173.542 C 113.648 174.298,113.386 175.931,113.174 179.589 C 113.014 182.345,112.557 186.310,112.158 188.400 C 111.167 193.593,111.169 203.245,112.161 208.200 C 112.558 210.180,113.022 214.158,113.193 217.040 C 113.427 220.994,113.677 222.546,114.213 223.364 C 114.646 224.025,115.029 225.655,115.196 227.551 C 115.386 229.715,115.720 231.009,116.298 231.827 C 116.755 232.472,117.251 233.893,117.401 234.984 C 117.551 236.075,118.008 237.393,118.417 237.912 C 118.825 238.431,119.282 239.699,119.431 240.728 C 119.580 241.758,120.031 242.914,120.433 243.298 C 120.835 243.683,121.288 244.673,121.440 245.498 C 121.593 246.324,122.141 247.396,122.659 247.881 C 123.176 248.365,123.600 249.222,123.600 249.785 C 123.600 250.347,123.959 251.115,124.398 251.491 C 124.836 251.866,125.404 252.810,125.659 253.587 C 125.914 254.364,126.455 255.235,126.861 255.523 C 127.268 255.810,127.600 256.351,127.600 256.724 C 127.600 257.097,128.140 257.912,128.800 258.535 C 129.460 259.158,130.000 259.896,130.000 260.175 C 130.000 260.455,130.450 261.169,131.000 261.762 C 131.550 262.356,132.000 263.102,132.000 263.421 C 132.000 263.739,132.264 264.000,132.586 264.000 C 132.908 264.000,133.385 264.399,133.647 264.887 C 134.206 265.933,134.831 266.628,139.495 271.400 C 143.689 275.690,147.097 278.800,147.604 278.800 C 147.806 278.800,148.165 279.160,148.400 279.600 C 148.635 280.040,149.063 280.400,149.350 280.400 C 149.942 280.400,152.329 282.064,154.082 283.700 C 154.731 284.305,155.504 284.800,155.800 284.800 C 156.096 284.800,156.873 285.250,157.527 285.800 C 158.181 286.350,159.013 286.800,159.376 286.800 C 159.739 286.800,160.449 287.213,160.954 287.717 C 161.458 288.222,162.601 288.854,163.494 289.121 C 164.387 289.388,165.213 289.858,165.331 290.165 C 165.449 290.471,166.477 290.922,167.616 291.166 C 168.755 291.410,170.141 291.968,170.697 292.405 C 171.253 292.842,172.199 293.200,172.800 293.200 C 173.401 293.200,174.392 293.593,175.003 294.074 C 175.682 294.608,177.057 295.077,178.537 295.279 C 179.941 295.471,181.305 295.923,181.780 296.353 C 182.381 296.897,183.497 297.161,185.953 297.339 C 188.187 297.502,189.742 297.841,190.614 298.355 C 191.600 298.937,193.042 299.192,196.461 299.388 C 198.958 299.531,202.943 300.005,205.318 300.440 C 210.647 301.416,219.357 301.521,223.200 300.654 C 224.630 300.332,228.950 299.850,232.800 299.582 C 237.637 299.247,239.999 298.923,240.445 298.536 C 241.159 297.916,244.890 297.206,247.457 297.202 C 248.528 297.201,249.193 296.996,249.335 296.625 C 249.587 295.968,252.004 295.206,253.846 295.202 C 254.531 295.201,255.552 294.838,256.115 294.396 C 256.677 293.953,258.066 293.415,259.200 293.200 C 260.334 292.985,261.723 292.447,262.285 292.004 C 262.848 291.562,263.797 291.200,264.396 291.200 C 264.994 291.200,265.944 290.773,266.507 290.251 C 267.070 289.729,268.177 289.181,268.966 289.033 C 270.800 288.689,271.000 286.775,269.400 284.873 C 268.850 284.219,268.400 283.492,268.400 283.256 C 268.400 283.020,267.860 282.275,267.200 281.600 C 266.540 280.925,266.000 280.154,266.000 279.886 C 265.999 279.619,265.549 278.877,265.000 278.238 C 264.450 277.599,264.000 276.763,264.000 276.381 C 264.000 275.998,263.730 275.582,263.399 275.455 C 263.069 275.328,262.484 274.544,262.099 273.712 C 261.715 272.881,261.085 271.965,260.700 271.677 C 260.315 271.390,260.000 270.921,260.000 270.636 C 260.000 270.350,259.552 269.633,259.003 269.041 C 258.455 268.450,257.892 267.509,257.752 266.949 C 257.611 266.390,257.115 265.512,256.648 264.997 C 255.058 263.243,253.973 261.642,253.547 260.420 C 253.264 259.607,252.835 259.181,252.261 259.142 C 250.155 259.000,248.535 259.332,247.737 260.071 C 247.139 260.625,246.098 260.935,244.337 261.084 C 242.851 261.210,241.252 261.630,240.477 262.096 C 236.993 264.196,206.606 264.193,203.117 262.094 C 202.393 261.658,200.743 261.199,199.451 261.074 C 197.909 260.926,196.810 260.577,196.251 260.058 C 195.783 259.624,194.556 259.144,193.524 258.992 C 192.492 258.841,191.351 258.388,190.989 257.987 C 190.626 257.586,189.622 257.139,188.759 256.993 C 187.892 256.847,187.023 256.418,186.818 256.034 C 186.614 255.653,185.720 255.123,184.830 254.856 C 183.941 254.590,183.024 254.018,182.792 253.586 C 182.561 253.154,182.118 252.800,181.809 252.800 C 181.499 252.800,181.010 252.477,180.723 252.082 C 180.435 251.687,179.525 250.952,178.700 250.449 C 177.875 249.946,177.200 249.382,177.200 249.194 C 177.200 249.007,176.856 248.745,176.435 248.611 C 175.673 248.369,168.400 241.444,168.400 240.960 C 168.400 240.820,167.860 240.091,167.200 239.339 C 166.540 238.587,166.000 237.741,166.000 237.458 C 166.000 237.176,165.550 236.553,165.000 236.075 C 164.450 235.597,164.000 234.915,164.000 234.560 C 164.000 234.206,163.550 233.381,163.000 232.727 C 162.450 232.073,162.000 231.220,162.000 230.832 C 162.000 230.443,161.569 229.623,161.043 229.011 C 160.516 228.398,159.970 227.176,159.830 226.294 C 159.689 225.413,159.237 224.264,158.825 223.741 C 158.392 223.190,157.957 221.749,157.790 220.313 C 157.619 218.840,157.176 217.394,156.697 216.746 C 156.056 215.879,155.856 214.856,155.719 211.728 C 155.624 209.568,155.260 206.630,154.910 205.200 C 154.144 202.074,154.064 194.131,154.775 191.800 C 155.043 190.920,155.409 188.040,155.587 185.400 C 155.892 180.895,156.490 178.400,157.264 178.400 C 157.449 178.400,157.604 177.815,157.610 177.100 C 157.624 175.230,158.356 172.312,158.989 171.606 C 159.288 171.273,159.656 170.335,159.806 169.523 C 159.957 168.711,160.512 167.461,161.040 166.746 C 161.568 166.030,162.000 165.133,162.000 164.753 C 162.000 164.373,162.423 163.553,162.939 162.931 C 163.456 162.309,163.999 161.305,164.147 160.700 C 164.294 160.095,164.587 159.600,164.797 159.600 C 165.008 159.600,165.436 159.105,165.749 158.500 C 166.316 157.407,167.276 156.261,170.544 152.780 C 171.484 151.779,172.377 150.637,172.528 150.242 C 172.680 149.847,173.146 149.434,173.565 149.325 C 173.984 149.216,174.416 148.784,174.525 148.365 C 174.634 147.946,175.056 147.482,175.462 147.333 C 175.868 147.184,176.560 146.727,177.000 146.319 C 178.750 144.693,180.728 143.200,181.132 143.200 C 181.367 143.200,182.044 142.750,182.638 142.200 C 183.231 141.650,184.037 141.200,184.428 141.200 C 184.819 141.200,185.647 140.777,186.269 140.261 C 186.891 139.744,187.890 139.202,188.490 139.056 C 189.089 138.910,190.239 138.342,191.045 137.795 C 191.852 137.248,192.982 136.799,193.556 136.798 C 194.130 136.797,195.486 136.347,196.568 135.798 C 197.818 135.164,199.206 134.800,200.374 134.800 C 201.541 134.800,202.794 134.472,203.806 133.900 C 206.231 132.531,234.155 132.488,236.400 133.849 C 237.321 134.408,238.768 134.774,240.627 134.920 C 242.342 135.054,243.995 135.449,244.827 135.924 C 247.505 137.451,251.600 137.344,251.600 135.748 C 251.600 135.378,252.050 134.486,252.600 133.764 C 253.150 133.043,253.600 132.204,253.600 131.899 C 253.600 131.594,254.032 130.969,254.560 130.510 C 255.088 130.050,255.643 129.117,255.793 128.434 C 255.942 127.752,256.396 127.016,256.800 126.800 C 257.204 126.584,257.656 125.857,257.803 125.185 C 257.951 124.514,258.505 123.496,259.036 122.924 C 259.566 122.351,260.000 121.556,260.000 121.156 C 260.000 120.756,260.345 120.243,260.767 120.017 C 261.190 119.791,261.658 119.048,261.807 118.366 C 261.957 117.683,262.512 116.750,263.040 116.290 C 263.568 115.831,264.000 115.142,264.000 114.759 C 264.000 114.375,264.425 113.553,264.945 112.931 C 265.465 112.309,266.010 111.419,266.155 110.953 C 266.301 110.487,266.776 109.784,267.210 109.391 C 268.546 108.182,268.211 107.348,266.184 106.838 C 265.185 106.586,264.267 106.120,264.145 105.801 C 264.023 105.482,263.309 105.107,262.558 104.966 C 261.807 104.825,260.728 104.344,260.159 103.896 C 259.590 103.449,258.287 102.927,257.262 102.738 C 256.238 102.548,254.950 102.064,254.400 101.662 C 253.850 101.260,252.500 100.810,251.400 100.663 C 250.300 100.515,248.943 100.058,248.385 99.647 C 247.768 99.194,246.052 98.724,244.013 98.449 C 242.167 98.201,240.283 97.753,239.826 97.454 C 239.319 97.122,236.588 96.725,232.798 96.433 C 229.389 96.170,225.160 95.705,223.400 95.400 C 218.989 94.635,215.304 94.472,210.600 94.833 " stroke="none" fill="#ffffff" fill-rule="evenodd"></path><path id="path1" d="M0.000 200.000 L 0.000 400.000 200.000 400.000 L 400.000 400.000 400.000 200.000 L 400.000 0.000 200.000 0.000 L 0.000 0.000 0.000 200.000 M232.758 94.544 C 233.725 94.908,236.155 95.388,238.158 95.612 C 240.161 95.836,242.836 96.375,244.102 96.810 C 245.367 97.244,246.807 97.602,247.302 97.604 C 247.796 97.606,249.102 98.028,250.205 98.542 C 251.308 99.055,252.928 99.607,253.805 99.767 C 254.682 99.927,256.390 100.516,257.600 101.074 C 258.810 101.633,260.520 102.407,261.400 102.794 C 265.152 104.445,269.195 106.609,269.366 107.057 C 269.673 107.857,268.850 110.231,267.998 111.002 C 267.559 111.399,267.200 111.952,267.200 112.231 C 267.200 112.510,266.781 113.247,266.268 113.869 C 265.756 114.491,264.573 116.350,263.639 118.000 C 262.706 119.650,261.328 121.990,260.579 123.200 C 259.829 124.410,258.932 125.940,258.586 126.600 C 258.241 127.260,257.346 128.790,256.599 130.000 C 254.501 133.397,253.624 134.863,252.650 136.600 C 251.420 138.792,249.974 139.469,248.257 138.654 C 247.545 138.316,246.098 137.846,245.041 137.609 C 243.983 137.372,242.642 136.938,242.059 136.644 C 241.477 136.350,239.290 135.896,237.200 135.636 C 235.110 135.376,232.320 134.870,231.000 134.511 C 227.130 133.461,212.575 133.571,207.800 134.686 C 205.820 135.149,203.229 135.654,202.042 135.809 C 200.855 135.964,199.145 136.427,198.242 136.837 C 197.339 137.247,196.254 137.586,195.832 137.591 C 194.642 137.605,185.457 141.988,183.000 143.715 C 182.120 144.334,180.495 145.440,179.390 146.175 C 176.167 148.315,174.021 150.543,168.192 157.800 C 165.569 161.067,164.800 162.149,164.800 162.577 C 164.800 162.834,164.350 163.655,163.800 164.400 C 163.250 165.145,162.800 166.055,162.800 166.422 C 162.800 166.788,162.376 167.714,161.857 168.478 C 161.338 169.242,160.783 170.573,160.623 171.434 C 160.464 172.295,160.000 173.542,159.593 174.204 C 159.186 174.867,158.735 176.397,158.591 177.604 C 158.447 178.812,157.974 180.866,157.541 182.169 C 155.863 187.215,155.894 209.042,157.586 213.856 C 158.034 215.130,158.408 216.719,158.418 217.386 C 158.427 218.054,158.715 219.320,159.057 220.200 C 159.399 221.080,160.045 222.880,160.492 224.200 C 160.940 225.520,161.529 226.870,161.802 227.200 C 162.075 227.530,162.515 228.472,162.779 229.294 C 163.042 230.116,163.440 230.901,163.662 231.038 C 163.884 231.176,164.410 232.033,164.831 232.944 C 165.251 233.855,166.225 235.410,166.995 236.400 C 167.766 237.390,168.823 238.830,169.344 239.600 C 170.410 241.173,176.354 247.200,176.840 247.200 C 177.013 247.200,178.290 248.152,179.677 249.315 C 182.328 251.537,185.999 254.000,186.660 254.000 C 186.874 254.000,187.408 254.335,187.847 254.743 C 188.286 255.152,189.354 255.721,190.221 256.007 C 191.087 256.293,192.589 256.948,193.558 257.463 C 194.526 257.979,195.792 258.400,196.371 258.400 C 196.949 258.400,197.819 258.678,198.303 259.017 C 198.788 259.357,200.667 259.895,202.478 260.214 C 204.290 260.532,206.678 261.109,207.786 261.496 C 211.118 262.660,232.237 262.537,236.400 261.330 C 238.050 260.851,240.390 260.341,241.600 260.196 C 242.810 260.051,244.430 259.620,245.200 259.238 C 248.769 257.468,254.400 257.287,254.400 258.942 C 254.400 259.250,254.683 259.737,255.029 260.024 C 255.375 260.311,256.029 261.279,256.481 262.173 C 256.934 263.068,257.551 263.944,257.852 264.120 C 258.153 264.296,258.400 264.669,258.400 264.949 C 258.400 265.228,258.935 266.165,259.589 267.029 C 260.243 267.893,260.783 268.754,260.789 268.942 C 260.795 269.130,261.205 269.788,261.700 270.403 C 262.195 271.019,263.140 272.457,263.800 273.600 C 264.460 274.743,265.380 276.155,265.844 276.739 C 266.308 277.322,266.987 278.385,267.354 279.100 C 267.721 279.815,268.182 280.400,268.379 280.400 C 268.577 280.400,268.941 281.014,269.188 281.765 C 269.436 282.515,269.900 283.230,270.219 283.352 C 270.539 283.475,270.800 283.826,270.800 284.134 C 270.800 284.441,271.133 285.121,271.541 285.646 C 273.170 287.745,272.933 288.785,270.590 289.822 C 269.426 290.336,268.356 290.947,268.213 291.179 C 268.070 291.410,267.648 291.601,267.276 291.602 C 266.904 291.602,265.520 292.142,264.200 292.800 C 262.880 293.458,261.530 294.003,261.200 294.011 C 260.870 294.019,259.700 294.468,258.600 295.009 C 257.500 295.550,256.330 295.991,256.000 295.989 C 255.670 295.988,253.960 296.430,252.200 296.973 C 250.440 297.516,247.756 298.337,246.236 298.798 C 244.716 299.259,241.566 299.889,239.236 300.198 C 236.906 300.507,233.830 301.072,232.400 301.454 C 228.535 302.486,203.499 302.528,199.522 301.508 C 198.049 301.131,195.169 300.620,193.122 300.374 C 191.075 300.128,188.442 299.592,187.271 299.183 C 186.101 298.775,184.301 298.315,183.271 298.161 C 182.242 298.008,180.664 297.567,179.764 297.183 C 178.864 296.798,177.123 296.275,175.895 296.020 C 174.666 295.765,173.455 295.308,173.203 295.004 C 172.951 294.700,172.172 294.332,171.472 294.186 C 170.773 294.041,169.448 293.489,168.529 292.961 C 167.610 292.432,166.620 291.999,166.329 291.998 C 166.038 291.996,165.260 291.701,164.600 291.341 C 163.940 290.981,162.590 290.250,161.600 289.716 C 159.721 288.703,157.159 287.240,154.540 285.686 C 153.693 285.183,152.280 284.232,151.400 283.573 C 150.520 282.915,149.350 282.079,148.800 281.716 C 148.250 281.353,147.620 280.855,147.400 280.610 C 147.180 280.364,146.617 279.900,146.150 279.579 C 143.992 278.096,140.662 274.941,134.600 268.638 C 134.160 268.180,133.137 266.905,132.327 265.803 C 130.572 263.416,130.043 262.722,128.314 260.546 C 126.899 258.765,125.848 257.048,124.766 254.749 C 124.391 253.951,123.916 253.195,123.711 253.069 C 123.189 252.746,118.400 242.912,118.400 242.162 C 118.400 241.957,118.064 241.161,117.653 240.394 C 117.243 239.627,116.776 238.370,116.616 237.600 C 116.456 236.830,115.914 235.300,115.411 234.200 C 114.908 233.100,114.366 231.120,114.207 229.800 C 114.048 228.481,113.676 226.934,113.381 226.364 C 113.086 225.793,112.571 223.273,112.235 220.763 C 111.900 218.254,111.425 215.570,111.180 214.800 C 110.032 211.193,110.036 184.702,111.184 181.800 C 111.446 181.140,111.911 178.575,112.219 176.101 C 112.527 173.626,113.035 171.106,113.348 170.500 C 113.661 169.895,114.048 168.319,114.207 167.000 C 114.366 165.680,114.908 163.700,115.411 162.600 C 115.914 161.500,116.451 159.970,116.606 159.200 C 116.760 158.430,117.227 157.239,117.643 156.553 C 118.059 155.867,118.400 155.059,118.400 154.759 C 118.400 154.458,118.842 153.309,119.383 152.206 C 119.923 151.103,120.645 149.570,120.986 148.800 C 121.327 148.030,122.136 146.500,122.783 145.400 C 123.431 144.300,124.327 142.659,124.775 141.753 C 125.224 140.847,125.863 139.880,126.195 139.604 C 126.528 139.328,126.800 138.854,126.800 138.551 C 126.800 138.248,127.135 137.665,127.545 137.255 C 127.954 136.846,128.623 135.946,129.031 135.255 C 129.439 134.565,129.909 134.000,130.076 134.000 C 130.243 134.000,130.637 133.505,130.951 132.900 C 132.726 129.482,146.123 116.355,150.800 113.451 C 152.010 112.699,153.379 111.706,153.842 111.242 C 154.305 110.779,154.828 110.400,155.004 110.400 C 155.180 110.400,155.881 109.976,156.562 109.458 C 157.243 108.939,158.224 108.381,158.741 108.218 C 159.259 108.054,160.319 107.488,161.097 106.960 C 161.875 106.432,162.729 106.000,162.994 106.000 C 163.259 106.000,163.777 105.668,164.144 105.261 C 164.512 104.855,165.575 104.298,166.506 104.023 C 167.438 103.748,168.761 103.180,169.447 102.761 C 170.133 102.343,170.950 102.000,171.263 102.000 C 171.575 102.000,172.544 101.624,173.415 101.164 C 174.287 100.705,176.040 100.076,177.311 99.767 C 178.582 99.457,180.022 98.946,180.511 98.631 C 181.000 98.316,182.570 97.855,184.000 97.608 C 185.430 97.360,187.320 96.901,188.200 96.589 C 189.080 96.276,191.330 95.825,193.200 95.587 C 195.070 95.350,197.320 94.963,198.200 94.728 C 201.716 93.790,204.334 93.659,217.400 93.769 C 228.878 93.865,231.274 93.986,232.758 94.544 " stroke="none" fill="#065ebe" fill-rule="evenodd"></path><path id="path2" d="M201.800 93.978 C 200.700 94.156,199.080 94.494,198.200 94.728 C 197.320 94.963,195.070 95.350,193.200 95.587 C 191.330 95.825,189.080 96.276,188.200 96.589 C 187.320 96.901,185.430 97.360,184.000 97.608 C 182.570 97.855,181.000 98.316,180.511 98.631 C 180.022 98.946,178.582 99.457,177.311 99.767 C 176.040 100.076,174.287 100.705,173.415 101.164 C 172.544 101.624,171.575 102.000,171.263 102.000 C 170.950 102.000,170.133 102.343,169.447 102.761 C 168.761 103.180,167.438 103.748,166.506 104.023 C 165.575 104.298,164.512 104.855,164.144 105.261 C 163.777 105.668,163.259 106.000,162.994 106.000 C 162.729 106.000,161.875 106.432,161.097 106.960 C 160.319 107.488,159.259 108.054,158.741 108.218 C 158.224 108.381,157.243 108.939,156.562 109.458 C 155.881 109.976,155.180 110.400,155.004 110.400 C 154.828 110.400,154.305 110.779,153.842 111.242 C 153.379 111.706,152.010 112.699,150.800 113.451 C 146.123 116.355,132.726 129.482,130.951 132.900 C 130.637 133.505,130.243 134.000,130.076 134.000 C 129.909 134.000,129.439 134.565,129.031 135.255 C 128.623 135.946,127.954 136.846,127.545 137.255 C 127.135 137.665,126.800 138.248,126.800 138.551 C 126.800 138.854,126.528 139.328,126.195 139.604 C 125.863 139.880,125.224 140.847,124.775 141.753 C 124.327 142.659,123.431 144.300,122.783 145.400 C 122.136 146.500,121.327 148.030,120.986 148.800 C 120.645 149.570,119.923 151.103,119.383 152.206 C 118.842 153.309,118.400 154.458,118.400 154.759 C 118.400 155.059,118.059 155.867,117.643 156.553 C 117.227 157.239,116.760 158.430,116.606 159.200 C 116.451 159.970,115.914 161.500,115.411 162.600 C 114.908 163.700,114.366 165.680,114.207 167.000 C 114.048 168.319,113.661 169.895,113.348 170.500 C 113.035 171.106,112.527 173.626,112.219 176.101 C 111.911 178.575,111.446 181.140,111.184 181.800 C 110.036 184.702,110.032 211.193,111.180 214.800 C 111.425 215.570,111.900 218.254,112.235 220.763 C 112.571 223.273,113.086 225.793,113.381 226.364 C 113.676 226.934,114.048 228.481,114.207 229.800 C 114.366 231.120,114.908 233.100,115.411 234.200 C 115.914 235.300,116.456 236.830,116.616 237.600 C 116.776 238.370,117.243 239.627,117.653 240.394 C 118.064 241.161,118.400 241.957,118.400 242.162 C 118.400 242.912,123.189 252.746,123.711 253.069 C 123.916 253.195,124.391 253.951,124.766 254.749 C 125.848 257.048,126.899 258.765,128.314 260.546 C 130.043 262.722,130.572 263.416,132.327 265.803 C 133.137 266.905,134.160 268.180,134.600 268.638 C 140.662 274.941,143.992 278.096,146.150 279.579 C 146.617 279.900,147.180 280.364,147.400 280.610 C 147.620 280.855,148.250 281.353,148.800 281.716 C 149.350 282.079,150.520 282.915,151.400 283.573 C 152.280 284.232,153.693 285.183,154.540 285.686 C 157.159 287.240,159.721 288.703,161.600 289.716 C 162.590 290.250,163.940 290.981,164.600 291.341 C 165.260 291.701,166.038 291.996,166.329 291.998 C 166.620 291.999,167.610 292.432,168.529 292.961 C 169.448 293.489,170.773 294.041,171.472 294.186 C 172.172 294.332,172.951 294.700,173.203 295.004 C 173.455 295.308,174.666 295.765,175.895 296.020 C 177.123 296.275,178.864 296.798,179.764 297.183 C 180.664 297.567,182.242 298.008,183.271 298.161 C 184.301 298.315,186.101 298.775,187.271 299.183 C 188.442 299.592,191.075 300.128,193.122 300.374 C 195.169 300.620,198.049 301.131,199.522 301.508 C 203.499 302.528,228.535 302.486,232.400 301.454 C 233.830 301.072,236.906 300.507,239.236 300.198 C 241.566 299.889,244.716 299.259,246.236 298.798 C 247.756 298.337,250.440 297.516,252.200 296.973 C 253.960 296.430,255.670 295.988,256.000 295.989 C 256.330 295.991,257.500 295.550,258.600 295.009 C 259.700 294.468,260.870 294.019,261.200 294.011 C 261.530 294.003,262.880 293.458,264.200 292.800 C 265.520 292.142,266.904 291.602,267.276 291.602 C 267.648 291.601,268.070 291.410,268.213 291.179 C 268.356 290.947,269.426 290.336,270.590 289.822 C 272.933 288.785,273.170 287.745,271.541 285.646 C 271.133 285.121,270.800 284.441,270.800 284.134 C 270.800 283.826,270.539 283.475,270.219 283.352 C 269.900 283.230,269.436 282.515,269.188 281.765 C 268.941 281.014,268.577 280.400,268.379 280.400 C 268.182 280.400,267.721 279.815,267.354 279.100 C 266.987 278.385,266.308 277.322,265.844 276.739 C 265.380 276.155,264.460 274.743,263.800 273.600 C 263.140 272.457,262.195 271.019,261.700 270.403 C 261.205 269.788,260.795 269.130,260.789 268.942 C 260.783 268.754,260.243 267.893,259.589 267.029 C 258.935 266.165,258.400 265.228,258.400 264.949 C 258.400 264.669,258.153 264.296,257.852 264.120 C 257.551 263.944,256.934 263.068,256.481 262.173 C 256.029 261.279,255.375 260.311,255.029 260.024 C 254.683 259.737,254.400 259.250,254.400 258.942 C 254.400 257.287,248.769 257.468,245.200 259.238 C 244.430 259.620,242.810 260.051,241.600 260.196 C 240.390 260.341,238.050 260.851,236.400 261.330 C 232.237 262.537,211.118 262.660,207.786 261.496 C 206.678 261.109,204.290 260.532,202.478 260.214 C 200.667 259.895,198.788 259.357,198.303 259.017 C 197.819 258.678,196.949 258.400,196.371 258.400 C 195.792 258.400,194.526 257.979,193.558 257.463 C 192.589 256.948,191.087 256.293,190.221 256.007 C 189.354 255.721,188.286 255.152,187.847 254.743 C 187.408 254.335,186.874 254.000,186.660 254.000 C 185.999 254.000,182.328 251.537,179.677 249.315 C 178.290 248.152,177.013 247.200,176.840 247.200 C 176.354 247.200,170.410 241.173,169.344 239.600 C 168.823 238.830,167.766 237.390,166.995 236.400 C 166.225 235.410,165.251 233.855,164.831 232.944 C 164.410 232.033,163.884 231.176,163.662 231.038 C 163.440 230.901,163.042 230.116,162.779 229.294 C 162.515 228.472,162.075 227.530,161.802 227.200 C 161.529 226.870,160.940 225.520,160.492 224.200 C 160.045 222.880,159.399 221.080,159.057 220.200 C 158.715 219.320,158.427 218.054,158.418 217.386 C 158.408 216.719,158.034 215.130,157.586 213.856 C 155.894 209.042,155.863 187.215,157.541 182.169 C 157.974 180.866,158.447 178.812,158.591 177.604 C 158.735 176.397,159.186 174.867,159.593 174.204 C 160.000 173.542,160.464 172.295,160.623 171.434 C 160.783 170.573,161.338 169.242,161.857 168.478 C 162.376 167.714,162.800 166.788,162.800 166.422 C 162.800 166.055,163.250 165.145,163.800 164.400 C 164.350 163.655,164.800 162.834,164.800 162.577 C 164.800 162.149,165.569 161.067,168.192 157.800 C 174.021 150.543,176.167 148.315,179.390 146.175 C 180.495 145.440,182.120 144.334,183.000 143.715 C 185.457 141.988,194.642 137.605,195.832 137.591 C 196.254 137.586,197.339 137.247,198.242 136.837 C 199.145 136.427,200.855 135.964,202.042 135.809 C 203.229 135.654,205.820 135.149,207.800 134.686 C 212.575 133.571,227.130 133.461,231.000 134.511 C 232.320 134.870,235.110 135.376,237.200 135.636 C 239.290 135.896,241.477 136.350,242.059 136.644 C 242.642 136.938,243.983 137.372,245.041 137.609 C 246.098 137.846,247.545 138.316,248.257 138.654 C 249.974 139.469,251.420 138.792,252.650 136.600 C 253.624 134.863,254.501 133.397,256.599 130.000 C 257.346 128.790,258.241 127.260,258.586 126.600 C 258.932 125.940,259.829 124.410,260.579 123.200 C 261.328 121.990,262.706 119.650,263.639 118.000 C 264.573 116.350,265.756 114.491,266.268 113.869 C 266.781 113.247,267.200 112.510,267.200 112.231 C 267.200 111.952,267.559 111.399,267.998 111.002 C 268.850 110.231,269.673 107.857,269.366 107.057 C 269.195 106.609,265.152 104.445,261.400 102.794 C 260.520 102.407,258.810 101.633,257.600 101.074 C 256.390 100.516,254.682 99.927,253.805 99.767 C 252.928 99.607,251.308 99.055,250.205 98.542 C 249.102 98.028,247.796 97.606,247.302 97.604 C 246.807 97.602,245.367 97.244,244.102 96.810 C 242.836 96.375,240.161 95.836,238.158 95.612 C 236.155 95.388,233.725 94.908,232.758 94.544 C 230.786 93.803,205.722 93.344,201.800 93.978 M223.400 95.400 C 225.160 95.705,229.389 96.170,232.798 96.433 C 236.588 96.725,239.319 97.122,239.826 97.454 C 240.283 97.753,242.167 98.201,244.013 98.449 C 246.052 98.724,247.768 99.194,248.385 99.647 C 248.943 100.058,250.300 100.515,251.400 100.663 C 252.500 100.810,253.850 101.260,254.400 101.662 C 254.950 102.064,256.238 102.548,257.262 102.738 C 258.287 102.927,259.590 103.449,260.159 103.896 C 260.728 104.344,261.807 104.825,262.558 104.966 C 263.309 105.107,264.023 105.482,264.145 105.801 C 264.267 106.120,265.185 106.586,266.184 106.838 C 268.211 107.348,268.546 108.182,267.210 109.391 C 266.776 109.784,266.301 110.487,266.155 110.953 C 266.010 111.419,265.465 112.309,264.945 112.931 C 264.425 113.553,264.000 114.375,264.000 114.759 C 264.000 115.142,263.568 115.831,263.040 116.290 C 262.512 116.750,261.957 117.683,261.807 118.366 C 261.658 119.048,261.190 119.791,260.767 120.017 C 260.345 120.243,260.000 120.756,260.000 121.156 C 260.000 121.556,259.566 122.351,259.036 122.924 C 258.505 123.496,257.951 124.514,257.803 125.185 C 257.656 125.857,257.204 126.584,256.800 126.800 C 256.396 127.016,255.942 127.752,255.793 128.434 C 255.643 129.117,255.088 130.050,254.560 130.510 C 254.032 130.969,253.600 131.594,253.600 131.899 C 253.600 132.204,253.150 133.043,252.600 133.764 C 252.050 134.486,251.600 135.378,251.600 135.748 C 251.600 137.344,247.505 137.451,244.827 135.924 C 243.995 135.449,242.342 135.054,240.627 134.920 C 238.768 134.774,237.321 134.408,236.400 133.849 C 234.155 132.488,206.231 132.531,203.806 133.900 C 202.794 134.472,201.541 134.800,200.374 134.800 C 199.206 134.800,197.818 135.164,196.568 135.798 C 195.486 136.347,194.130 136.797,193.556 136.798 C 192.982 136.799,191.852 137.248,191.045 137.795 C 190.239 138.342,189.089 138.910,188.490 139.056 C 187.890 139.202,186.891 139.744,186.269 140.261 C 185.647 140.777,184.819 141.200,184.428 141.200 C 184.037 141.200,183.231 141.650,182.638 142.200 C 182.044 142.750,181.367 143.200,181.132 143.200 C 180.728 143.200,178.750 144.693,177.000 146.319 C 176.560 146.727,175.868 147.184,175.462 147.333 C 175.056 147.482,174.634 147.946,174.525 148.365 C 174.416 148.784,173.984 149.216,173.565 149.325 C 173.146 149.434,172.680 149.847,172.528 150.242 C 172.377 150.637,171.484 151.779,170.544 152.780 C 167.276 156.261,166.316 157.407,165.749 158.500 C 165.436 159.105,165.008 159.600,164.797 159.600 C 164.587 159.600,164.294 160.095,164.147 160.700 C 163.999 161.305,163.456 162.309,162.939 162.931 C 162.423 163.553,162.000 164.373,162.000 164.753 C 162.000 165.133,161.568 166.030,161.040 166.746 C 160.512 167.461,159.957 168.711,159.806 169.523 C 159.656 170.335,159.288 171.273,158.989 171.606 C 158.356 172.312,157.624 175.230,157.610 177.100 C 157.604 177.815,157.449 178.400,157.264 178.400 C 156.490 178.400,155.892 180.895,155.587 185.400 C 155.409 188.040,155.043 190.920,154.775 191.800 C 154.064 194.131,154.144 202.074,154.910 205.200 C 155.260 206.630,155.624 209.568,155.719 211.728 C 155.856 214.856,156.056 215.879,156.697 216.746 C 157.176 217.394,157.619 218.840,157.790 220.313 C 157.957 221.749,158.392 223.190,158.825 223.741 C 159.237 224.264,159.689 225.413,159.830 226.294 C 159.970 227.176,160.516 228.398,161.043 229.011 C 161.569 229.623,162.000 230.443,162.000 230.832 C 162.000 231.220,162.450 232.073,163.000 232.727 C 163.550 233.381,164.000 234.206,164.000 234.560 C 164.000 234.915,164.450 235.597,165.000 236.075 C 165.550 236.553,166.000 237.176,166.000 237.458 C 166.000 237.741,166.540 238.587,167.200 239.339 C 167.860 240.091,168.400 240.820,168.400 240.960 C 168.400 241.444,175.673 248.369,176.435 248.611 C 176.856 248.745,177.200 249.007,177.200 249.194 C 177.200 249.382,177.875 249.946,178.700 250.449 C 179.525 250.952,180.435 251.687,180.723 252.082 C 181.010 252.477,181.499 252.800,181.809 252.800 C 182.118 252.800,182.561 253.154,182.792 253.586 C 183.024 254.018,183.941 254.590,184.830 254.856 C 185.720 255.123,186.614 255.653,186.818 256.034 C 187.023 256.418,187.892 256.847,188.759 256.993 C 189.622 257.139,190.626 257.586,190.989 257.987 C 191.351 258.388,192.492 258.841,193.524 258.992 C 194.556 259.144,195.783 259.624,196.251 260.058 C 196.810 260.577,197.909 260.926,199.451 261.074 C 200.743 261.199,202.393 261.658,203.117 262.094 C 206.606 264.193,236.993 264.196,240.477 262.096 C 241.252 261.630,242.851 261.210,244.337 261.084 C 246.098 260.935,247.139 260.625,247.737 260.071 C 248.535 259.332,250.155 259.000,252.261 259.142 C 252.835 259.181,253.264 259.607,253.547 260.420 C 253.973 261.642,255.058 263.243,256.648 264.997 C 257.115 265.512,257.611 266.390,257.752 266.949 C 257.892 267.509,258.455 268.450,259.003 269.041 C 259.552 269.633,260.000 270.350,260.000 270.636 C 260.000 270.921,260.315 271.390,260.700 271.677 C 261.085 271.965,261.715 272.881,262.099 273.712 C 262.484 274.544,263.069 275.328,263.399 275.455 C 263.730 275.582,264.000 275.998,264.000 276.381 C 264.000 276.763,264.450 277.599,265.000 278.238 C 265.549 278.877,265.999 279.619,266.000 279.886 C 266.000 280.154,266.540 280.925,267.200 281.600 C 267.860 282.275,268.400 283.020,268.400 283.256 C 268.400 283.492,268.850 284.219,269.400 284.873 C 271.000 286.775,270.800 288.689,268.966 289.033 C 268.177 289.181,267.070 289.729,266.507 290.251 C 265.944 290.773,264.994 291.200,264.396 291.200 C 263.797 291.200,262.848 291.562,262.285 292.004 C 261.723 292.447,260.334 292.985,259.200 293.200 C 258.066 293.415,256.677 293.953,256.115 294.396 C 255.552 294.838,254.531 295.201,253.846 295.202 C 252.004 295.206,249.587 295.968,249.335 296.625 C 249.193 296.996,248.528 297.201,247.457 297.202 C 244.890 297.206,241.159 297.916,240.445 298.536 C 239.999 298.923,237.637 299.247,232.800 299.582 C 228.950 299.850,224.630 300.332,223.200 300.654 C 219.357 301.521,210.647 301.416,205.318 300.440 C 202.943 300.005,198.958 299.531,196.461 299.388 C 193.042 299.192,191.600 298.937,190.614 298.355 C 189.742 297.841,188.187 297.502,185.953 297.339 C 183.497 297.161,182.381 296.897,181.780 296.353 C 181.305 295.923,179.941 295.471,178.537 295.279 C 177.057 295.077,175.682 294.608,175.003 294.074 C 174.392 293.593,173.401 293.200,172.800 293.200 C 172.199 293.200,171.253 292.842,170.697 292.405 C 170.141 291.968,168.755 291.410,167.616 291.166 C 166.477 290.922,165.449 290.471,165.331 290.165 C 165.213 289.858,164.387 289.388,163.494 289.121 C 162.601 288.854,161.458 288.222,160.954 287.717 C 160.449 287.213,159.739 286.800,159.376 286.800 C 159.013 286.800,158.181 286.350,157.527 285.800 C 156.873 285.250,156.096 284.800,155.800 284.800 C 155.504 284.800,154.731 284.305,154.082 283.700 C 152.329 282.064,149.942 280.400,149.350 280.400 C 149.063 280.400,148.635 280.040,148.400 279.600 C 148.165 279.160,147.806 278.800,147.604 278.800 C 147.097 278.800,143.689 275.690,139.495 271.400 C 134.831 266.628,134.206 265.933,133.647 264.887 C 133.385 264.399,132.908 264.000,132.586 264.000 C 132.264 264.000,132.000 263.739,132.000 263.421 C 132.000 263.102,131.550 262.356,131.000 261.762 C 130.450 261.169,130.000 260.455,130.000 260.175 C 130.000 259.896,129.460 259.158,128.800 258.535 C 128.140 257.912,127.600 257.097,127.600 256.724 C 127.600 256.351,127.268 255.810,126.861 255.523 C 126.455 255.235,125.914 254.364,125.659 253.587 C 125.404 252.810,124.836 251.866,124.398 251.491 C 123.959 251.115,123.600 250.347,123.600 249.785 C 123.600 249.222,123.176 248.365,122.659 247.881 C 122.141 247.396,121.593 246.324,121.440 245.498 C 121.288 244.673,120.835 243.683,120.433 243.298 C 120.031 242.914,119.580 241.758,119.431 240.728 C 119.282 239.699,118.825 238.431,118.417 237.912 C 118.008 237.393,117.551 236.075,117.401 234.984 C 117.251 233.893,116.755 232.472,116.298 231.827 C 115.720 231.009,115.386 229.715,115.196 227.551 C 115.029 225.655,114.646 224.025,114.213 223.364 C 113.677 222.546,113.427 220.994,113.193 217.040 C 113.022 214.158,112.558 210.180,112.161 208.200 C 111.169 203.245,111.167 193.593,112.158 188.400 C 112.557 186.310,113.014 182.345,113.174 179.589 C 113.386 175.931,113.648 174.298,114.144 173.542 C 114.520 172.967,114.989 171.048,115.196 169.236 C 115.444 167.062,115.827 165.638,116.338 164.988 C 116.762 164.448,117.233 162.994,117.390 161.740 C 117.576 160.250,117.937 159.250,118.438 158.834 C 118.904 158.448,119.305 157.433,119.464 156.237 C 119.608 155.157,120.046 153.954,120.437 153.563 C 120.828 153.172,121.324 152.213,121.540 151.432 C 121.756 150.651,122.307 149.535,122.766 148.952 C 123.225 148.369,123.600 147.591,123.600 147.224 C 123.600 146.856,124.050 145.945,124.600 145.200 C 125.150 144.455,125.600 143.585,125.600 143.268 C 125.600 142.951,126.043 142.281,126.584 141.780 C 127.125 141.278,127.688 140.388,127.836 139.800 C 127.983 139.213,128.543 138.253,129.080 137.666 C 129.617 137.080,130.346 136.284,130.701 135.897 C 131.055 135.511,131.718 134.596,132.173 133.864 C 134.299 130.445,134.632 130.005,135.090 130.003 C 135.359 130.001,135.859 129.460,136.200 128.800 C 136.541 128.140,137.000 127.600,137.219 127.600 C 137.438 127.600,137.822 127.150,138.073 126.600 C 138.323 126.050,138.773 125.600,139.073 125.600 C 139.372 125.600,139.822 125.150,140.073 124.600 C 140.323 124.050,140.773 123.600,141.073 123.600 C 141.372 123.600,141.813 123.170,142.053 122.644 C 142.292 122.118,142.918 121.492,143.444 121.253 C 143.970 121.013,144.400 120.629,144.400 120.399 C 144.400 120.169,144.867 119.802,145.439 119.585 C 146.010 119.368,146.571 118.833,146.685 118.395 C 146.800 117.958,147.118 117.600,147.392 117.600 C 147.667 117.600,148.501 117.063,149.246 116.406 C 149.991 115.750,150.794 115.210,151.030 115.206 C 151.267 115.203,151.883 114.750,152.400 114.200 C 152.917 113.650,153.547 113.200,153.800 113.200 C 154.053 113.200,154.675 112.759,155.181 112.221 C 155.686 111.682,156.610 111.130,157.232 110.993 C 157.855 110.856,158.468 110.416,158.596 110.014 C 158.736 109.571,159.381 109.180,160.236 109.020 C 161.011 108.874,161.977 108.423,162.383 108.017 C 162.789 107.611,163.544 107.153,164.061 106.999 C 164.577 106.846,165.630 106.307,166.400 105.803 C 167.170 105.299,168.473 104.769,169.295 104.626 C 170.178 104.472,170.962 104.045,171.209 103.583 C 171.505 103.030,172.048 102.800,173.055 102.800 C 173.840 102.800,175.319 102.356,176.341 101.814 C 177.363 101.272,179.029 100.725,180.041 100.599 C 181.054 100.472,182.248 100.029,182.694 99.613 C 183.260 99.086,184.393 98.777,186.452 98.589 C 188.074 98.442,190.120 97.986,191.000 97.577 C 192.121 97.056,194.277 96.712,198.200 96.428 C 201.280 96.206,204.430 95.825,205.200 95.582 C 208.751 94.462,217.491 94.375,223.400 95.400 " stroke="none" fill="#b4ceea" fill-rule="evenodd"></path></g></svg>